<?xml version="1.0" encoding="iso-8859-1"?>
<!-- Uploaded to: SVG Repo, www.svgrepo.com, Generator: SVG Repo Mixer Tools -->
<svg height="800px" width="800px" version="1.1" id="Layer_1" xmlns="http://www.w3.org/2000/svg" xmlns:xlink="http://www.w3.org/1999/xlink" 
	 viewBox="0 0 512 512" xml:space="preserve">
<path style="fill:#C27526;" d="M486.222,198.061H399.16c-9.197,0-16.653,7.456-16.653,16.653v73.001
	c0,9.197,7.456,16.653,16.653,16.653h87.062c9.197,0,16.653-7.456,16.653-16.653v-73.001
	C502.875,205.517,495.419,198.061,486.222,198.061z"/>
<path style="fill:#F7DC4D;" d="M486.222,198.061H399.16c-9.197,0-16.653,7.456-16.653,16.653v36.5h120.367v-36.5
	C502.875,205.517,495.419,198.061,486.222,198.061z"/>
<path style="fill:#940009;" d="M463.634,56.247h-64.474c-9.197,0-16.653,7.456-16.653,16.653V145.9
	c0,9.197,7.456,16.653,16.653,16.653h64.474c9.197,0,16.653-7.456,16.653-16.653V72.9C480.286,63.703,472.83,56.247,463.634,56.247z
	"/>
<path style="fill:#FF0029;" d="M463.634,56.247h-64.474c-9.197,0-16.653,7.456-16.653,16.653v36.5h97.78V72.9
	C480.286,63.703,472.83,56.247,463.634,56.247z"/>
<path style="fill:#30767A;" d="M477.845,339.874H399.16c-9.197,0-16.653,7.456-16.653,16.653v73.002
	c0,9.197,7.456,16.653,16.653,16.653h78.685c9.197,0,16.653-7.456,16.653-16.653v-73.002
	C494.498,347.329,487.042,339.874,477.845,339.874z"/>
<path style="fill:#4AB6BF;" d="M477.845,339.874H399.16c-9.197,0-16.653,7.456-16.653,16.653v36.5h111.99v-36.5
	C494.498,347.329,487.042,339.874,477.845,339.874z"/>
<path style="fill:#005A95;" d="M399.159,0H25.778C16.581,0,9.125,7.456,9.125,16.653v478.695c0,9.197,7.456,16.653,16.653,16.653
	H399.16c9.197,0,16.653-7.456,16.653-16.653V16.653C415.812,7.456,408.357,0,399.159,0z"/>
<path style="fill:#31AAEF;" d="M212.469,0H25.778C16.581,0,9.125,7.456,9.125,16.653v478.695c0,9.197,7.456,16.653,16.653,16.653
	h186.691V0z"/>
<path style="fill:#9CD8FF;" d="M321.97,219.818c0,10.73-8.698,19.428-19.428,19.428H122.395c-10.73,0-19.428-8.698-19.428-19.428
	V128.23c0-10.73,8.698-19.428,19.428-19.428h180.147c10.73,0,19.428,8.698,19.428,19.428V219.818z"/>
<path style="fill:#1D1D1F;" d="M307.61,304.965H122.115c-9.197,0-16.653-7.456-16.653-16.653c0-9.197,7.456-16.653,16.653-16.653
	H307.61c9.197,0,16.653,7.456,16.653,16.653C324.262,297.509,316.806,304.965,307.61,304.965z"/>
<path style="fill:#FFFFFF;" d="M212.468,108.801h-90.074c-10.73,0-19.428,8.698-19.428,19.428v91.588
	c0,10.73,8.698,19.428,19.428,19.428h90.074V108.801z"/>
<path style="fill:#3E3E42;" d="M212.468,271.66h-90.354c-9.197,0-16.653,7.456-16.653,16.653c0,9.197,7.456,16.653,16.653,16.653
	h90.354V271.66z"/>
</svg>