<?xml version="1.0" encoding="iso-8859-1"?>
<!-- Uploaded to: SVG Repo, www.svgrepo.com, Generator: SVG Repo Mixer Tools -->
<svg height="800px" width="800px" version="1.1" id="Layer_1" xmlns="http://www.w3.org/2000/svg" xmlns:xlink="http://www.w3.org/1999/xlink" 
	 viewBox="0 0 512 512" xml:space="preserve">
<path style="fill:#FED766;" d="M409.685,102.315L409.685,102.315c-17.387-17.387-17.387-45.577,0-62.964L449.037,0l15.741,47.222
	L512,62.964l-39.352,39.352C455.261,119.702,427.071,119.702,409.685,102.315z"/>
<path style="fill:#D6A154;" d="M409.685,102.315l55.092-55.092L512,62.964l-39.352,39.352
	C455.261,119.702,427.071,119.702,409.685,102.315L409.685,102.315z"/>
<path style="fill:#D6964A;" d="M445.217,256c0,104.501-84.716,189.217-189.217,189.217S66.783,360.501,66.783,256
	S151.499,66.783,256,66.783S445.217,151.499,445.217,256z"/>
<path style="fill:#FFD880;" d="M411.826,256c0,86.061-69.766,155.826-155.826,155.826S100.174,342.061,100.174,256
	S169.939,100.174,256,100.174S411.826,169.939,411.826,256z"/>
<path style="fill:#FFFFFF;" d="M162.217,380.722c-1.651,1.965-4.015,2.977-6.396,2.977c-1.896,0-3.801-0.642-5.366-1.957
	c-37.26-31.305-58.63-77.137-58.63-125.743s21.369-94.437,58.63-125.743c3.529-2.966,8.795-2.508,11.762,1.021
	c2.966,3.529,2.509,8.795-1.021,11.762c-33.476,28.126-52.675,69.298-52.675,112.961s19.199,84.835,52.675,112.961
	C164.726,371.926,165.183,377.191,162.217,380.722z"/>
<path style="fill:#FC8059;" d="M278.261,256c0,12.295-9.966,22.261-22.261,22.261c-12.295,0-22.261-9.966-22.261-22.261
	c0-12.295,9.966-22.261,22.261-22.261C268.295,233.739,278.261,243.705,278.261,256z M512,256c0,4.61-3.738,8.348-8.348,8.348
	H355.826c-4.016,48.664-42.812,87.462-91.478,91.477v147.828c0,4.61-3.738,8.348-8.348,8.348c-4.61,0-8.348-3.738-8.348-8.348
	V355.824c-48.664-4.016-87.462-42.812-91.478-91.477H8.348C3.738,264.348,0,260.61,0,256s3.738-8.348,8.348-8.348h147.827
	c4.016-48.664,42.812-87.462,91.478-91.477V8.348C247.652,3.738,251.39,0,256,0s8.348,3.738,8.348,8.348v147.827
	c48.664,4.016,87.462,42.812,91.478,91.477h147.827C508.262,247.652,512,251.39,512,256z M300.522,256
	c0-24.588-19.934-44.522-44.522-44.522S211.478,231.412,211.478,256s19.933,44.522,44.522,44.522S300.522,280.588,300.522,256z"/>
<path style="fill:#AD3C1E;" d="M506.772,17.033l-244.87,244.87c-1.629,1.629-3.767,2.445-5.902,2.445
	c-2.136,0-4.273-0.815-5.902-2.445c-3.26-3.26-3.26-8.546,0-11.805l244.87-244.87c3.26-3.26,8.546-3.26,11.805,0
	C510.033,8.487,510.033,13.774,506.772,17.033z"/>
</svg>