<?xml version="1.0" encoding="iso-8859-1"?>
<!-- Uploaded to: SVG Repo, www.svgrepo.com, Generator: SVG Repo Mixer Tools -->
<svg version="1.1" id="Layer_1" xmlns="http://www.w3.org/2000/svg" xmlns:xlink="http://www.w3.org/1999/xlink" 
	 viewBox="0 0 512 512" xml:space="preserve">
<path style="fill:#FFC06E;" d="M512,274.581c0-18.621-15.097-33.718-33.718-33.718h-11.584
	c14.431-3.819,25.071-16.961,25.071-32.594c0-18.621-15.097-33.718-33.718-33.718H375.82c8.767-26.402,11.692-50.723,10.548-73.853
	c-0.683-13.703-10.424-25.829-24.472-28.894c-15.347-3.348-32.927,4.794-37.556,26.009c-8.305,38.071-63.42,91.417-63.383,91.375
	c-9.758,8.999-15.009,21.05-15.664,33.335H171.18v190.161h66.054c2.619,16.015,16.513,28.239,33.268,28.239H437.82
	c18.621,0,33.718-15.097,33.718-33.718c0-15.633-10.64-28.775-25.072-32.594h11.584c18.621,0,33.718-15.097,33.718-33.718
	c0-15.633-10.64-28.775-25.072-32.594h11.584C496.905,308.299,512,293.202,512,274.581z"/>
<path style="fill:#FFD094;" d="M478.282,240.863h-11.584c14.431-3.819,25.071-16.961,25.071-32.594
	c0-18.621-15.097-33.718-33.718-33.718H375.82c8.767-26.402,11.692-50.723,10.548-73.853c-0.683-13.703-10.424-25.829-24.472-28.894
	c-15.347-3.348-32.927,4.794-37.556,26.009c-8.305,38.071-63.42,91.417-63.383,91.375c-9.758,8.999-15.009,21.05-15.664,33.335
	H171.18v95.08H482.4c-4.224-4.413-9.62-7.694-15.704-9.305h11.584c18.621,0,33.718-15.097,33.718-33.718
	S496.905,240.863,478.282,240.863z"/>
<rect x="171.186" y="222.526" style="fill:#EBA64B;" width="65.873" height="190.157"/>
<rect x="171.186" y="222.526" style="fill:#FCB251;" width="65.873" height="95.084"/>
<path style="fill:#005A95;" d="M179.497,411.366c0,10.265-8.322,18.586-18.586,18.586H18.586C8.322,429.953,0,421.632,0,411.366
	V223.841c0-10.265,8.322-18.586,18.586-18.586h142.323c10.265,0,18.586,8.322,18.586,18.586v187.524H179.497z"/>
<circle style="fill:#4EA3D9;" cx="116.551" cy="384.361" r="21.467"/>
<path style="fill:#31AAEF;" d="M160.909,205.255H18.586C8.322,205.255,0,213.577,0,223.841v93.761h179.497v-93.761
	C179.497,213.577,171.175,205.255,160.909,205.255z"/>
<path style="fill:#5DBAF5;" d="M95.076,384.361c0,11.859,9.613,21.472,21.472,21.472v-42.944
	C104.689,362.888,95.076,372.501,95.076,384.361z"/>
</svg>